<?xml version="1.0" standalone="no"?>
<!DOCTYPE svg PUBLIC "-//W3C//DTD SVG 20010904//EN"
 "http://www.w3.org/TR/2001/REC-SVG-20010904/DTD/svg10.dtd">
<svg version="1.0" xmlns="http://www.w3.org/2000/svg"
 width="96.000000pt" height="96.000000pt" viewBox="0 0 96.000000 96.000000"
 preserveAspectRatio="xMidYMid meet">
<metadata>
Created by potrace 1.11, written by Peter Selinger 2001-2013
</metadata>
<g transform="translate(0.000000,96.000000) scale(0.100000,-0.100000)"
fill="#000000" stroke="none">
<path d="M520 943 c-87 -11 -113 -30 -134 -100 -5 -17 -3 -21 11 -18 10 2 21
4 26 4 4 1 12 12 17 25 6 17 21 28 47 35 48 14 261 9 289 -7 22 -11 59 -93 52
-114 -5 -14 -20 -17 -133 -24 -49 -4 -91 -7 -93 -9 -1 -1 3 -16 9 -32 6 -20
22 -36 41 -44 30 -12 58 -59 58 -97 0 -15 10 -21 45 -25 63 -9 100 -31 115
-67 7 -16 19 -30 26 -30 21 0 27 42 22 161 -4 87 -2 109 9 109 22 0 26 28 9
55 -9 14 -26 25 -39 25 -18 0 -26 11 -43 58 -28 79 -58 93 -202 96 -59 1 -118
1 -132 -1z m340 -312 c0 -34 -14 -41 -76 -41 -36 0 -44 3 -44 18 0 21 52 50
93 51 23 1 27 -3 27 -28z"/>
<path d="M219 779 c-70 -11 -85 -23 -110 -88 -19 -49 -28 -60 -51 -65 -18 -4
-32 -15 -38 -32 -12 -31 -6 -44 20 -44 16 0 18 -4 11 -23 -9 -24 -12 -200 -4
-230 4 -15 14 -17 56 -15 48 3 52 5 55 31 3 26 6 27 57 27 41 0 57 4 67 19 7
10 22 21 34 25 13 4 29 27 43 60 31 74 69 93 210 100 46 3 89 10 95 16 17 17
-14 64 -45 68 -20 2 -28 13 -45 60 -28 79 -59 94 -202 96 -59 2 -128 -1 -153
-5z m263 -51 c17 -6 34 -25 48 -55 25 -54 23 -74 -10 -82 -39 -8 -331 -7 -363
2 -25 7 -28 11 -22 35 14 59 37 92 69 101 41 11 244 11 278 -1z m-298 -245
c66 -31 54 -57 -24 -51 -46 3 -68 23 -57 52 8 21 37 20 81 -1z"/>
<path d="M499 499 c-70 -11 -86 -23 -109 -88 -19 -50 -26 -60 -51 -65 -19 -4
-33 -14 -39 -32 -12 -31 -6 -44 21 -44 14 0 18 -4 12 -12 -9 -15 -15 -202 -7
-236 4 -21 9 -23 57 -20 48 3 52 5 55 31 l3 27 179 0 179 0 3 -27 c3 -26 7
-28 52 -31 32 -2 52 1 57 10 12 18 11 201 -1 232 -8 23 -7 26 11 26 45 0 29
67 -19 76 -23 5 -31 16 -48 62 -28 79 -59 93 -202 96 -59 1 -128 -1 -153 -5z
m256 -50 c30 -8 40 -19 56 -55 27 -63 25 -70 -23 -82 -46 -12 -333 -10 -361 3
-20 8 -19 25 8 88 11 27 23 39 48 45 44 13 228 13 272 1z m-291 -246 c66 -31
54 -57 -24 -51 -46 3 -68 23 -57 52 8 21 37 20 81 -1z m396 -12 c0 -17 -6 -31
-16 -35 -29 -11 -102 -7 -107 7 -6 16 61 57 96 57 23 0 27 -4 27 -29z"/>
</g>
</svg>
